<svg width="22" height="22" viewBox="0 0 22 22" fill="none" xmlns="http://www.w3.org/2000/svg">
<path opacity="0.4" d="M11 5.90334V8.95584" stroke="#8E8E8E" stroke-width="1.5" stroke-miterlimit="10" stroke-linecap="round"/>
<path d="M11.0184 1.83333C7.64503 1.83333 4.91336 4.56499 4.91336 7.93833V9.86333C4.91336 10.4867 4.6567 11.4217 4.33586 11.9533L3.1717 13.8967C2.4567 15.0975 2.95169 16.4358 4.27169 16.8758C8.65336 18.3333 13.3925 18.3333 17.7742 16.8758C19.0117 16.4633 19.5434 15.015 18.8742 13.8967L17.71 11.9533C17.3892 11.4217 17.1325 10.4775 17.1325 9.86333V7.93833C17.1234 4.58333 14.3734 1.83333 11.0184 1.83333Z" stroke="#8E8E8E" stroke-width="1.5" stroke-miterlimit="10" stroke-linecap="round"/>
<path opacity="0.4" d="M14.0525 17.2517C14.0525 18.9292 12.6775 20.3042 11 20.3042C10.1658 20.3042 9.39584 19.9558 8.84584 19.4058C8.29584 18.8558 7.94751 18.0858 7.94751 17.2517" stroke="#8E8E8E" stroke-width="1.5" stroke-miterlimit="10"/>
</svg>
